<?xml version="1.0" encoding="UTF-8"?>
<svg width="613px" height="612px" viewBox="0 0 613 612" version="1.1" xmlns="http://www.w3.org/2000/svg" xmlns:xlink="http://www.w3.org/1999/xlink">
    <!-- Generator: Sketch 54.1 (76490) - https://sketchapp.com -->
    <title>SVG Layer</title>
    <desc>Created with Sketch.</desc>
    <g id="Page-1" stroke="none" stroke-width="1" fill="none" fill-rule="evenodd">
        <g id="SVG-Layer" fill-rule="nonzero">
            <g id="Group">
                <circle id="Oval" fill="#FBFBFA" cx="306.2" cy="306" r="306"></circle>
                <path d="M234.7,527.8 C234.7,525.7 234.7,523.7 234.7,521.6 C234.7,507.2 235.1,492.5 235.5,477.3 C235.9,470 235.9,462.5 235.9,455.2 C235.9,448.3 236.3,440.4 236.3,433.5 C236.7,418.7 237.1,403.2 237.1,389.2 C237.1,386.3 237.9,371.1 237.1,367.1 C236.3,360.6 232.2,356.9 228.5,353.5 C225.6,351.1 222.4,349 219.5,346.6 C209.3,339.7 199,332.2 197.4,316.3 C197,311.4 197,306.5 197.4,300.7 C197.4,298.7 197.4,296.2 197.4,294.2 C197.4,289.7 197.4,285.2 197.8,280.6 C197.8,270.8 198.2,260.1 198.6,249.9 C199,243.4 199,236.3 199,229.8 C199,222 199,213.8 199.4,205.6 C199.8,198.7 199.8,191.2 199.8,184.3 C199.8,177 199.8,169.1 200.2,161.4 C200.6,154.9 200.6,148.2 200.6,141.7 C200.6,137.2 200.6,132.7 201,128.5 C201,127.3 201,126.5 201,125.2 C201,117.9 201,110.4 207.9,108.8 L209.5,108.8 C216.8,110.4 216.8,120.2 216.4,130.1 C216.4,131.7 216.4,133.8 216.4,135.4 L216.4,264.8 C216.4,266.8 216.4,268.9 216.4,270.9 C216.4,276.2 216,281.5 217.2,285.7 C217.6,286.9 219.2,291.4 222.9,291.4 C223.3,291.4 224.1,291.4 224.5,291 C230.2,289.4 229.8,279.2 229.4,270.5 C229.4,268.9 229.4,266.8 229.4,265.2 L229.4,135.2 C229.4,133.6 229.4,131.9 229.4,129.9 C229,120.1 229,109.8 236.3,108.6 L237.5,108.6 C244.4,109.8 244.4,116.8 244.4,124.6 L244.4,274.9 C244.4,276.5 244.4,277.8 244.4,279 C244.4,286.8 244,291.2 250.9,292.2 C254.2,292.6 256.6,290.2 257,287.7 C257.8,282.8 257.8,275.9 257.8,269.2 C257.8,268 257.8,267.2 257.8,265.9 C257.8,242.5 257.8,222 257.4,201.5 C257.4,181.4 257,160.5 257,138.1 C257,136.1 257,134 257,132 C256.6,121.8 256.2,110.3 263.9,108.6 L265.5,108.6 C272.8,110.2 272.8,119.6 272.4,129.1 C272.4,130.7 272.4,132.4 272.4,134 L272.4,264.7 C272.4,266.7 272.4,268.8 272.4,270.8 C272,276.1 272,281.8 273.2,285.6 C274,288.5 276.9,290.9 279.3,290.9 C280.5,290.9 282.2,290.1 283,289.3 C286.3,285.6 285.9,277.9 285.9,270 C285.9,268 285.9,266.3 285.9,264.3 L285.9,136.4 C285.9,134.8 285.9,132.7 285.9,130.7 C285.5,120.9 285.1,110.2 292.8,108.6 L294,108.6 C300.9,109.4 300.9,118.4 300.9,126.7 C300.9,146.8 301.7,167.7 302.1,187.7 C302.9,207.8 303.3,228.3 303.3,248.3 C303.3,256.1 303.7,263.5 303.7,270.8 C304.1,277.7 304.1,285.6 304.1,292.9 C304.1,296.6 304.1,299.8 304.5,302.7 C304.5,306.8 304.9,310.9 304.5,314.9 C305.4,331.3 294.4,338.6 283.7,346 C280.8,348 278,350.1 275.1,352.1 C271.4,355 266.9,359.4 265.7,365.3 C265.3,367.3 265.3,369.8 265.3,372.2 C265.3,373.4 265.3,374.6 265.3,375.9 C265.3,393.1 265.7,411.1 266.5,427.9 C266.9,443.5 267.3,459.4 267.7,475.4 C267.7,489.4 268.1,503.7 268.5,517.2 C268.7,520.7 268.8,524.3 268.9,527.8 L234.7,527.8 L234.7,527.8 Z" id="Path" fill="#3ABFC6"></path>
                <path d="M385,527.9 C385.1,526.6 385.1,525.3 385.2,524 C385.6,510.8 386,497 386,483.8 C386.4,465.7 386.4,452.7 386.8,437.1 C387.2,423.1 384.4,419.5 375.4,408.4 C374.6,407.6 373.8,406.4 373,405.1 C346,372 342.7,346.6 338.6,314.5 C338.2,310.8 337.8,306.7 337,303.1 C332.9,273.2 338.6,216.3 344.8,189.3 C347.7,177.1 355.8,152.1 361.2,142.6 C369,128.2 373,120.5 382.9,113.1 C386.2,110.7 390.7,109 394.7,109 C399.2,109 402.5,110.6 404.9,113.9 C408.6,118.4 409,121.7 409.8,131.1 L409.8,132.3 C413.9,164.6 415.1,239.2 413.5,353.5 C413.5,359.2 413.5,362.9 413.5,363.7 C413.9,395.6 413.9,427.6 413.9,457.5 C413.9,473.1 414.3,488.6 414.7,503.8 C414.9,511.8 415.1,519.9 415.3,528 L385,527.9 Z" id="Path" fill="#3ABFC6"></path>
                <path d="M285.3,329.4 C285.3,329.4 255.4,362.5 218.9,329.4 C219,329.4 252.2,342.4 285.3,329.4 Z M375.1,399 C375.1,399 393.2,419.5 411.1,399 C411.1,399 395.6,403.5 375.1,399 Z" id="Shape" fill="#09AFB8"></path>
            </g>
        </g>
    </g>
</svg>